#!OML:ASF F:\VICON\USERDATA\INSTALL\rory3\rory3.ASF
:FULLY-SPECIFIED
:DEGREES
121
root 5.19255 17.7938 -7.49508 -0.952873 0.412398 3.24505
lowerback 9.30758 -1.29939 -4.69607
upperback 0.805394 -2.16618 1.04132
thorax -4.16608 -0.982554 4.00401
lowerneck -16.4797 -2.48586 -1.8933
upperneck 22.0003 -2.93349 -0.158754
head 9.72027 -1.54192 -0.124698
rclavicle 2.66868e-014 -1.90833e-014
rhumerus -32.3623 -22.4596 -77.5021
rradius 22.7139
rwrist 7.0478
rhand -16.1651 25.1942
rfingers 7.12502
rthumb 10.0409 -4.54629
lclavicle 2.66868e-014 -1.90833e-014
lhumerus -25.5813 -6.09069 81.0928
lradius 39.4464
lwrist 8.30633
lhand -26.961 30.8232
lfingers 7.12502
lthumb -0.382413 60.8026
rfemur -29.7213 9.70594 14.6486
rtibia 14.3833
rfoot 4.73217 -16.4493
rtoes -37.1545
lfemur 11.6694 -0.619589 -28.8015
ltibia 15.7552
lfoot -16.2633 -2.29222
ltoes -5.36985
122
root 5.1774 17.7779 -7.30408 -0.97877 0.688667 3.1398
lowerback 9.4414 -1.42923 -4.67788
upperback 0.650691 -2.34282 1.12017
thorax -4.38226 -1.06011 4.10694
lowerneck -16.305 -2.48337 -1.79134
upperneck 22.0771 -2.90586 -0.389421
head 9.70897 -1.54815 -0.216449
rclavicle 1.26228e-014 1.59028e-015
rhumerus -32.8285 -23.0904 -76.8852
rradius 22.0912
rwrist 7.61427
rhand -17.0557 24.0179
rfingers 7.12502
rthumb 9.18158 -5.76217
lclavicle 1.26228e-014 1.59028e-015
lhumerus -25.7364 -5.9403 81.0318
lradius 39.3746
lwrist 8.24087
lhand -27.6368 28.8789
lfingers 7.12502
lthumb -1.03509 58.8561
rfemur -29.5098 9.6576 14.7999
rtibia 13.8706
rfoot 4.67168 -16.6032
rtoes -38.8586
lfemur 12.4521 -0.689384 -28.5309
ltibia 16.0912
lfoot -16.547 -2.5108
ltoes -6.98617
123
root 5.1695 17.7543 -7.10956 -0.992858 0.822264 3.1415
lowerback 9.71654 -1.46078 -4.63802
upperback 0.490775 -2.39708 1.10964
thorax -4.70054 -1.07477 4.09582
lowerneck -16.2589 -2.54893 -1.86433
upperneck 22.0743 -2.99652 -0.31949
head 9.70252 -1.58844 -0.191275
rclavicle 8.44835e-015 9.93923e-015
rhumerus -33.3404 -23.9498 -76.2752
rradius 21.6723
rwrist 8.29843
rhand -17.1144 23.813
rfingers 7.12502
rthumb 9.12492 -5.96959
lclavicle 8.44835e-015 9.93923e-015
lhumerus -25.6804 -6.00529 80.9714
lradius 39.165
lwrist 8.29891
lhand -26.2306 26.935
lfingers 7.12502
lthumb 0.323063 56.9145
rfemur -29.5118 8.82721 15.2211
rtibia 14.1658
rfoot 3.82682 -15.7313
rtoes -37.7775
lfemur 12.7242 -1.04969 -28.5042
ltibia 16.3875
lfoot -15.9542 -2.93825
ltoes -5.73572
124
root 5.15883 17.7467 -6.91325 -1.00799 0.907265 3.19188
lowerback 9.48163 -1.43555 -4.6857
upperback 0.660855 -2.35487 1.09452
thorax -4.39365 -1.06594 4.08729
lowerneck -16.4591 -2.57833 -1.94343
upperneck 21.8715 -3.03593 -0.211057
head 9.67193 -1.59963 -0.146653
rclavicle 5.56597e-015 -9.54166e-015
rhumerus -33.3152 -24.8133 -75.9017
rradius 21.3045
rwrist 8.69562
rhand -17.4376 22.7371
rfingers 7.12502
rthumb 8.81308 -7.0589
lclavicle 5.56597e-015 -9.54166e-015
lhumerus -25.1204 -6.1666 80.9337
lradius 38.8987
lwrist 8.40576
lhand -26.0039 20.9555
lfingers 7.12502
lthumb 0.542017 50.9346
rfemur -29.6052 7.61835 15.8177
rtibia 14.9954
rfoot 2.77136 -14.2094
rtoes -34.5075
lfemur 13.371 -1.31326 -28.5283
ltibia 16.7868
lfoot -16.1711 -3.17174
ltoes -8.07219
125
root 5.14562 17.7374 -6.71483 -0.99067 1.05641 3.24004
lowerback 9.35484 -1.49802 -4.75505
upperback 0.623084 -2.44025 1.09003
thorax -4.35082 -1.10757 4.12783
lowerneck -16.3585 -2.53196 -1.93434
upperneck 21.7439 -2.99076 -0.14829
head 9.60855 -1.57091 -0.117952
rclavicle -1.72943e-014 -3.57812e-015
rhumerus -33.6668 -25.0204 -75.5715
rradius 21.0609
rwrist 8.6471
rhand -18.0381 21.0622
rfingers 7.12502
rthumb 8.23355 -8.75737
lclavicle -1.72943e-014 -3.57812e-015
lhumerus -25.1059 -5.98288 80.8515
lradius 38.6744
lwrist 8.1394
lhand -27.528 25.4453
lfingers 7.12502
lthumb -0.930034 55.4231
rfemur -29.7477 6.35026 16.4297
rtibia 16.1423
rfoot 1.73491 -12.5044
rtoes -30.6378
lfemur 13.7003 -1.7535 -28.5343
ltibia 17.1434
lfoot -15.4704 -3.59568
ltoes -8.14595
126
root 5.13501 17.7243 -6.51716 -0.941099 1.11336 3.24755
lowerback 9.13667 -1.53644 -4.71482
upperback 0.686678 -2.47641 1.06745
thorax -4.16104 -1.13363 4.07475
lowerneck -16.5732 -2.54028 -1.89351
upperneck 21.7261 -3.02268 -0.0890937
head 9.64281 -1.57474 -0.111211
rclavicle 2.78299e-015 8.34896e-015
rhumerus -33.7834 -25.957 -75.063
rradius 20.5484
rwrist 9.19478
rhand -18.3016 20.6151
rfingers 7.12502
rthumb 7.97923 -9.2143
lclavicle 2.78299e-015 8.34896e-015
lhumerus -24.8795 -5.90834 80.7671
lradius 38.4721
lwrist 8.27807
lhand -28.6756 24.8059
lfingers 7.12502
lthumb -2.03836 54.7759
rfemur -29.9979 5.50517 16.9309
rtibia 17.4529
rfoot 0.950848 -11.3332
rtoes -27.9686
lfemur 14.2206 -1.88838 -28.4833
ltibia 17.7445
lfoot -15.8641 -3.94207
ltoes -11.4473
127
root 5.12221 17.7062 -6.31662 -1.14036 1.11326 2.99645
lowerback 9.20053 -1.54573 -4.50829
upperback 0.812774 -2.46391 1.16187
thorax -4.07048 -1.13556 4.05492
lowerneck -16.6526 -2.57343 -2.03333
upperneck 21.5686 -3.05364 0.0183258
head 9.60684 -1.58779 -0.0546751
rclavicle 3.57315e-014 -2.62396e-014
rhumerus -33.8831 -26.6695 -74.5737
rradius 20.0154
rwrist 9.67879
rhand -18.4648 20.6649
rfingers 7.12502
rthumb 7.82174 -9.17045
lclavicle 3.57315e-014 -2.62396e-014
lhumerus -24.7251 -5.72322 80.7218
lradius 38.3906
lwrist 8.17365
lhand -28.8211 22.7535
lfingers 7.12502
lthumb -2.17898 52.7221
rfemur -29.9494 5.07643 17.628
rtibia 18.862
rfoot 0.12193 -10.8466
rtoes -27.397
lfemur 14.6332 -2.18022 -28.2304
ltibia 18.3749
lfoot -15.2754 -4.42988
ltoes -12.3209
128
root 5.1069 17.6966 -6.10993 -1.3779 1.09703 3.09234
lowerback 9.30622 -1.47997 -4.66445
upperback 0.900014 -2.39763 1.1174
thorax -4.04057 -1.10292 4.09083
lowerneck -16.6007 -2.60876 -1.81382
upperneck 21.4083 -3.11136 -0.192348
head 9.53356 -1.62077 -0.169348
rclavicle -1.45113e-014 -5.56597e-015
rhumerus -34.1845 -27.9631 -73.7834
rradius 19.3387
rwrist 10.8148
rhand -18.4863 20.3957
rfingers 7.12502
rthumb 7.80102 -9.44038
lclavicle -1.45113e-014 -5.56597e-015
lhumerus -24.8047 -5.75634 80.6777
lradius 38.5075
lwrist 7.70083
lhand -28.3621 25.1565
lfingers 7.12502
lthumb -1.73565 55.1292
rfemur -29.7663 4.92765 17.8356
rtibia 20.2559
rfoot -0.612283 -10.333
rtoes -25.5011
lfemur 15.15 -2.16519 -28.2761
ltibia 19.0093
lfoot -14.521 -5.03067
ltoes -11.9684
